<?xml version="1.0" encoding="utf-8"?>
<!-- Generator: Adobe Illustrator 26.0.2, SVG Export Plug-In . SVG Version: 6.00 Build 0)  -->
<svg version="1.1" id="Layer_1" xmlns="http://www.w3.org/2000/svg" xmlns:xlink="http://www.w3.org/1999/xlink" x="0px" y="0px"
	 viewBox="0 0 45 45" style="enable-background:new 0 0 45 45;" xml:space="preserve">
<style type="text/css">
	.st0{fill-rule:evenodd;clip-rule:evenodd;fill:#181616;}
</style>
<path class="st0" d="M22.5,1.04c-12.15,0-22,9.85-22,22c0,9.72,6.3,17.96,15.05,20.87c1.1,0.2,1.5-0.48,1.5-1.06
	c0-0.52-0.02-1.91-0.03-3.74c-6.12,1.33-7.41-2.95-7.41-2.95c-1-2.54-2.44-3.22-2.44-3.22c-2-1.37,0.15-1.34,0.15-1.34
	c2.21,0.16,3.37,2.27,3.37,2.27c1.96,3.36,5.15,2.39,6.4,1.83c0.2-1.42,0.77-2.39,1.4-2.94C13.6,32.21,8.46,30.32,8.46,21.89
	c0-2.4,0.86-4.37,2.26-5.9c-0.23-0.56-0.98-2.79,0.22-5.82c0,0,1.85-0.59,6.05,2.26c1.75-0.49,3.64-0.73,5.51-0.74
	c1.87,0.01,3.75,0.25,5.51,0.74c4.2-2.85,6.04-2.26,6.04-2.26c1.2,3.03,0.45,5.27,0.22,5.82c1.41,1.54,2.26,3.5,2.26,5.9
	c0,8.45-5.14,10.31-10.04,10.86c0.79,0.68,1.49,2.02,1.49,4.07c0,2.94-0.03,5.31-0.03,6.04c0,0.59,0.4,1.27,1.51,1.06
	C38.2,41,44.5,32.76,44.5,23.04C44.5,10.89,34.65,1.04,22.5,1.04z"/>
</svg>
